<?xml version="1.0" encoding="UTF-8" standalone="no"?><!DOCTYPE svg PUBLIC "-//W3C//DTD SVG 1.1//EN" "http://www.w3.org/Graphics/SVG/1.1/DTD/svg11.dtd"><svg width="100%" height="100%" viewBox="0 0 203 203" version="1.1" xmlns="http://www.w3.org/2000/svg" xmlns:xlink="http://www.w3.org/1999/xlink" xml:space="preserve" xmlns:serif="http://www.serif.com/" style="fill-rule:evenodd;clip-rule:evenodd;stroke-linejoin:round;stroke-miterlimit:1.5;"><path d="M201.735,50.809l-0,100.617c-0,27.766 -22.543,50.309 -50.309,50.309l-100.617,-0c-27.766,-0 -50.309,-22.543 -50.309,-50.309l-0,-100.617c-0,-27.766 22.543,-50.309 50.309,-50.309l100.617,-0c27.766,-0 50.309,22.543 50.309,50.309Z" style="fill:#fff;stroke:#fff;stroke-width:1px;"/><path d="M121.338,90.975l-85.622,0" style="fill:none;stroke:#005fa7;stroke-width:7.5px;stroke-linecap:round;"/><path d="M100.046,159.629l-19.752,0" style="fill:none;stroke:#005fa7;stroke-width:7px;stroke-linecap:round;"/><path d="M118.291,137.873l-29.058,0l-32.667,-0.267" style="fill:none;stroke:#005fa7;stroke-width:7px;stroke-linecap:round;"/><path d="M133.151,114.797l-21.976,0l-76.242,0.056" style="fill:none;stroke:#005fa7;stroke-width:8.5px;stroke-linecap:round;"/><path d="M115.44,67.579l-60.688,0.519" style="fill:none;stroke:#005fa7;stroke-width:7px;stroke-linecap:round;"/><path d="M105.934,46.639c-0,-0 -29.893,0.192 -29.893,0.192" style="fill:none;stroke:#005fa7;stroke-width:7px;stroke-linecap:round;"/><path d="M19.302,104.258l35.549,33.968l29.766,31.222" style="fill:none;stroke:#005fa7;stroke-width:7px;stroke-linecap:round;"/><path d="M26.831,101.625l58.494,67.899" style="fill:none;stroke:#005fa7;stroke-width:9px;stroke-linecap:round;"/><path d="M28.34,102.772l84.01,-96.531" style="fill:none;stroke:#005fa7;stroke-width:8px;stroke-linecap:round;"/><path d="M157.868,126.029l-75.819,0" style="fill:none;stroke:#0077f5;stroke-width:5px;stroke-linecap:round;"/><path d="M180.966,102.083l-49.603,0.09l-60.788,0.124" style="fill:none;stroke:#0077f5;stroke-width:4.5px;stroke-linecap:round;"/><path d="M135.47,148.261l-17.184,0.046l-17.849,0" style="fill:none;stroke:#0077f5;stroke-width:5.5px;stroke-linecap:round;"/><path d="M159.277,78.893l-74.836,0" style="fill:none;stroke:#0077f5;stroke-width:5px;stroke-linecap:round;"/><path d="M135.903,56.898l-32.666,0" style="fill:none;stroke:#0077f5;stroke-width:5.5px;stroke-linecap:round;"/><path d="M112.689,6.155l-92.953,96.864" style="fill:none;stroke:#005fa7;stroke-width:7px;stroke-linecap:round;"/><path d="M182.767,104.47l-30.003,30.558l-59.844,60.749" style="fill:none;stroke:#0077f5;stroke-width:7px;stroke-linecap:round;"/><path d="M175.238,101.837l-82.826,93.302" style="fill:none;stroke:#0077f5;stroke-width:9px;stroke-linecap:round;"/><path d="M173.728,102.984l-58.43,-68.176" style="fill:none;stroke:#0077f5;stroke-width:9px;stroke-linecap:round;"/><path d="M115.789,33.888l66.543,69.342" style="fill:none;stroke:#0077f5;stroke-width:7px;stroke-linecap:round;"/></svg>