<?xml version="1.0" encoding="UTF-8" standalone="no"?><!DOCTYPE svg PUBLIC "-//W3C//DTD SVG 1.1//EN" "http://www.w3.org/Graphics/SVG/1.1/DTD/svg11.dtd"><svg width="100%" height="100%" viewBox="0 0 711 823" version="1.1" xmlns="http://www.w3.org/2000/svg" xmlns:xlink="http://www.w3.org/1999/xlink" xml:space="preserve" xmlns:serif="http://www.serif.com/" style="fill-rule:evenodd;clip-rule:evenodd;stroke-linejoin:round;stroke-miterlimit:1.5;"><path d="M439.735,369.728l-356.76,-0" style="fill:none;stroke:#005fa7;stroke-width:31.25px;stroke-linecap:round;"/><path d="M351.017,655.786l-82.3,-0" style="fill:none;stroke:#005fa7;stroke-width:29.17px;stroke-linecap:round;"/><path d="M427.038,565.135l-121.075,0l-136.111,-1.113" style="fill:none;stroke:#005fa7;stroke-width:29.17px;stroke-linecap:round;"/><path d="M488.955,468.987l-91.567,0l-317.674,0.23" style="fill:none;stroke:#005fa7;stroke-width:35.42px;stroke-linecap:round;"/><path d="M415.159,272.242l-252.868,2.164" style="fill:none;stroke:#005fa7;stroke-width:29.17px;stroke-linecap:round;"/><path d="M375.548,184.993c0,-0 -124.551,0.799 -124.551,0.799" style="fill:none;stroke:#005fa7;stroke-width:29.17px;stroke-linecap:round;"/><path d="M14.583,425.074l148.122,141.534l124.026,130.091" style="fill:none;stroke:#005fa7;stroke-width:29.17px;stroke-linecap:round;"/><path d="M45.953,414.103l243.727,282.912" style="fill:none;stroke:#005fa7;stroke-width:37.5px;stroke-linecap:round;"/><path d="M52.242,418.882l350.041,-402.215" style="fill:none;stroke:#005fa7;stroke-width:33.33px;stroke-linecap:round;"/><path d="M591.943,515.786l-315.914,0" style="fill:none;stroke:#0077f5;stroke-width:20.83px;stroke-linecap:round;"/><path d="M688.186,416.01l-206.682,0.374l-253.282,0.517" style="fill:none;stroke:#0077f5;stroke-width:18.75px;stroke-linecap:round;"/><path d="M498.617,608.418l-71.599,0.192l-74.373,0" style="fill:none;stroke:#0077f5;stroke-width:22.92px;stroke-linecap:round;"/><path d="M597.813,319.387l-311.818,0" style="fill:none;stroke:#0077f5;stroke-width:20.83px;stroke-linecap:round;"/><path d="M500.422,227.739l-136.111,0" style="fill:none;stroke:#0077f5;stroke-width:22.92px;stroke-linecap:round;"/><path d="M403.697,16.311l-387.304,403.597" style="fill:none;stroke:#005fa7;stroke-width:29.17px;stroke-linecap:round;"/><path d="M695.686,425.956l-125.011,127.326l-249.35,253.119" style="fill:none;stroke:#0077f5;stroke-width:29.17px;stroke-linecap:round;"/><path d="M664.317,414.986l-345.11,388.756" style="fill:none;stroke:#0077f5;stroke-width:37.5px;stroke-linecap:round;"/><path d="M658.027,419.765l-243.462,-284.068" style="fill:none;stroke:#0077f5;stroke-width:37.5px;stroke-linecap:round;"/><path d="M416.614,131.864l277.262,288.927" style="fill:none;stroke:#0077f5;stroke-width:29.17px;stroke-linecap:round;"/></svg>